<svg width="100" height="100" viewBox="0 0 100 100" fill="none" xmlns="http://www.w3.org/2000/svg">
<g clip-path="url(#clip0_26_52)">
<mask id="path-1-inside-1_26_52" fill="white">
<path d="M50 0C77.6142 0 100 22.3858 100 50C100 77.6142 77.6142 100 50 100C22.3858 100 0 77.6142 0 50C0 22.3858 22.3858 0 50 0ZM30 71.2471H44.6943V29H30V71.2471ZM55.3057 71.2471H70V29H55.3057V71.2471Z"/>
</mask>
<path d="M50 0C77.6142 0 100 22.3858 100 50C100 77.6142 77.6142 100 50 100C22.3858 100 0 77.6142 0 50C0 22.3858 22.3858 0 50 0ZM30 71.2471H44.6943V29H30V71.2471ZM55.3057 71.2471H70V29H55.3057V71.2471Z" fill="white"/>
<path d="M30 71.2471H29V72.2471H30V71.2471ZM44.6943 71.2471V72.2471H45.6943V71.2471H44.6943ZM44.6943 29H45.6943V28H44.6943V29ZM30 29V28H29V29H30ZM55.3057 71.2471H54.3057V72.2471H55.3057V71.2471ZM70 71.2471V72.2471H71V71.2471H70ZM70 29H71V28H70V29ZM55.3057 29V28H54.3057V29H55.3057ZM50 0V1C77.062 1 99 22.938 99 50H100H101C101 21.8335 78.1665 -1 50 -1V0ZM100 50H99C99 77.062 77.062 99 50 99V100V101C78.1665 101 101 78.1665 101 50H100ZM50 100V99C22.938 99 1 77.062 1 50H0H-1C-1 78.1665 21.8335 101 50 101V100ZM0 50H1C1 22.938 22.938 1 50 1V0V-1C21.8335 -1 -1 21.8335 -1 50H0ZM30 71.2471V72.2471H44.6943V71.2471V70.2471H30V71.2471ZM44.6943 71.2471H45.6943V29H44.6943H43.6943V71.2471H44.6943ZM44.6943 29V28H30V29V30H44.6943V29ZM30 29H29V71.2471H30H31V29H30ZM55.3057 71.2471V72.2471H70V71.2471V70.2471H55.3057V71.2471ZM70 71.2471H71V29H70H69V71.2471H70ZM70 29V28H55.3057V29V30H70V29ZM55.3057 29H54.3057V71.2471H55.3057H56.3057V29H55.3057Z" fill="#676051" mask="url(#path-1-inside-1_26_52)"/>
</g>
<defs>
<clipPath id="clip0_26_52">
<rect width="100" height="100" fill="white"/>
</clipPath>
</defs>
</svg>
