<svg width="100" height="100" viewBox="0 0 100 100" fill="none" xmlns="http://www.w3.org/2000/svg">
<g clip-path="url(#clip0_25_37)">
<path d="M50 0.5C77.336 0.5 99.5 22.6638 99.5 50C99.5 77.336 77.336 99.5 50 99.5C22.6638 99.5 0.5 77.336 0.5 50C0.5 22.6638 22.6638 0.5 50 0.5ZM40.5596 32.1445C40.2333 32.0061 39.85 32.0198 39.5283 32.2041L39.5264 32.2051C39.17 32.4109 38.9473 32.7959 38.9473 33.2119V66.7842C38.9473 67.203 39.1696 67.5825 39.5225 67.7881V67.7891C39.8918 68.0068 40.3433 67.9935 40.6973 67.7803L40.6982 67.7812L68.8232 50.9951L68.8223 50.9941C69.1822 50.7823 69.3877 50.3994 69.3877 49.998C69.3877 49.6056 69.1854 49.2157 68.8223 49.0049L68.8232 49.0039L40.6982 32.2148L40.6963 32.2139L40.5596 32.1445Z" fill="#DF6C05" stroke="#676051"/>
<path d="M70.6777 48.1943C71.6925 48.7687 71.6925 50.2313 70.6777 50.8057L39.2383 68.5938C38.2384 69.1591 37 68.4368 37 67.2881L37 31.7119C37 30.5632 38.2384 29.8409 39.2383 30.4063L70.6777 48.1943Z" fill="#F6FAFF" stroke="#9A8787"/>
</g>
<defs>
<clipPath id="clip0_25_37">
<rect width="100" height="100" fill="white"/>
</clipPath>
</defs>
</svg>
